<svg width="163" height="423" viewBox="0 0 163 423" fill="none" xmlns="http://www.w3.org/2000/svg">
<path d="M105.129 72.5398L105.235 72.5404C105.823 72.5472 106.483 72.5749 107.071 72.6459C112.028 73.3009 117.547 73.3034 122.396 74.4256C132.223 76.7001 141.404 80.6887 149.517 86.7211C151.02 87.8388 152.08 89.359 153.314 90.6973C160.419 98.3994 161.907 109.255 161.57 119.432C161.105 133.488 152.593 147.117 141.61 155.689C134.605 161.157 124.684 166.177 116.363 169.505C99.6937 174.817 86.2334 183.716 76.2815 198.287C75.1766 199.91 73.6096 201.589 72.5668 203.381C63.6756 218.657 57.8949 236.44 57.6294 254.199C57.4643 265.388 57.5278 274.841 61.5818 285.26C67.6937 300.967 78.1603 304.18 92.6129 309.464C98.4132 311.584 109.714 319.516 114.132 324.103C122.568 332.862 129.575 345.75 130.48 358.074C130.795 361.686 131.438 365.002 131.229 368.689C131.067 371.544 130.884 374.267 130.49 377.101C129.73 386.36 127.072 393.608 122.31 401.556C121.375 403.116 119.487 406.18 118.195 407.422C116.932 408.874 114.489 411.725 113.137 412.831C108.643 416.353 100.128 421.132 94.372 421.208C90.0131 421.266 82.9272 421.691 78.6799 421.186C55.4229 418.413 41.7746 401.428 36.3597 379.694C31.85 361.592 30.7059 343.165 29.6383 324.619C29.3241 319.043 29.6332 313.298 29.3342 307.65C28.3135 284.808 26.0627 262.04 22.591 239.441C20.0896 223.872 16.5196 208.492 11.9065 193.413C8.05638 180.585 3.04332 168.509 1.84494 154.945C0.685608 141.823 1.75534 128.112 10.5687 117.583C16.684 110.277 25.7802 104.205 33.5792 98.8185C50.0224 87.2327 68.3655 78.1258 88.2146 74.2479C93.2725 73.2598 99.834 72.9871 105.129 72.5398Z" fill="white" fill-opacity="0.3"/>
<path d="M130.992 0.507227C139.152 0.406998 142.456 0.456452 149.38 5.74712C154.635 10.0486 158.852 18.5134 159.121 25.2893C159.838 43.3737 160.543 63.353 137.725 65.7528C137.327 65.8102 136.928 65.8583 136.528 65.8971C130.553 66.4665 123.717 64.4279 119.145 60.5977C103.138 47.1909 106.606 2.4661 130.992 0.507227Z" fill="white" fill-opacity="0.3"/>
<path d="M90.8086 12.0628C102.173 10.5687 106.167 21.7223 105.793 31.0501C105.47 39.0945 106.092 49.9681 100.506 56.4632C98.3992 58.9122 95.4937 59.4489 92.4871 59.4588C89.9057 59.5119 87.7491 59.6095 85.5864 57.7111C79.6711 51.7406 77.6549 38.3251 76.9247 30.1342C76.009 19.863 80.711 12.8502 90.8086 12.0628Z" fill="white" fill-opacity="0.3"/>
<path d="M62.0949 31.4355C65.8501 31.2252 68.0151 31.5627 70.9733 33.9319C74.6096 36.8443 77.1865 43.0389 77.3782 47.5658C77.6367 53.6718 78.1187 61.6697 73.6785 66.4436C71.2665 69.0366 70.3997 69.6718 66.9973 69.9753C63.2238 70.0781 59.6689 67.567 57.6519 64.4727C50.7978 53.9589 45.9289 35.9949 62.0949 31.4355Z" fill="white" fill-opacity="0.3"/>
<path d="M40.5606 51.2744C48.7913 50.7618 51.1026 57.9555 52.1681 64.8936C53.503 73.586 52.4838 82.8973 42.0049 84.4078C34.4033 84.1262 30.0298 73.0623 29.5074 66.6211C29.1768 62.546 30.1707 57.9956 33.0443 54.9473C35.5353 52.3049 36.8933 51.4819 40.5606 51.2744Z" fill="white" fill-opacity="0.3"/>
<path d="M15.7359 66.7342C20.4315 66.0515 24.7664 69.4096 25.877 73.9423C27.0962 78.9183 27.5048 88.9164 25.3012 93.6892C23.4151 97.7745 20.5605 99.8055 16.45 101.16C16.1473 101.237 15.8416 101.302 15.5337 101.354C9.8718 102.274 7.12096 96.6474 6.40005 91.9597C5.06439 83.2743 4.30537 68.5973 15.7359 66.7342Z" fill="white" fill-opacity="0.3"/>
</svg>
