<svg width="163" height="423" viewBox="0 0 163 423" fill="none" xmlns="http://www.w3.org/2000/svg">
<path d="M57.8708 72.5398L57.7651 72.5404C57.1769 72.5472 56.5166 72.5749 55.9288 72.6459C50.9718 73.3009 45.4533 73.3034 40.6043 74.4256C30.7767 76.7001 21.5965 80.6887 13.4828 86.7211C11.9799 87.8388 10.9204 89.359 9.68571 90.6973C2.58077 98.3994 1.09273 109.255 1.42966 119.432C1.89535 133.488 10.4068 147.117 21.3897 155.689C28.395 161.157 38.3157 166.177 46.6372 169.505C63.3063 174.817 76.7666 183.716 86.7185 198.287C87.8234 199.91 89.3904 201.589 90.4332 203.381C99.3244 218.657 105.105 236.44 105.371 254.199C105.536 265.388 105.472 274.841 101.418 285.26C95.3063 300.967 84.8397 304.18 70.3871 309.464C64.5868 311.584 53.2861 319.516 48.8684 324.103C40.4316 332.862 33.4253 345.75 32.5195 358.074C32.2051 361.686 31.5622 365.002 31.7712 368.689C31.9331 371.544 32.1162 374.267 32.5098 377.101C33.2697 386.36 35.9283 393.608 40.69 401.556C41.6246 403.116 43.5125 406.18 44.8048 407.422C46.0679 408.874 48.5115 411.725 49.8634 412.831C54.357 416.353 62.8716 421.132 68.628 421.208C72.9869 421.266 80.0728 421.691 84.3201 421.186C107.577 418.413 121.225 401.428 126.64 379.694C131.15 361.592 132.294 343.165 133.362 324.619C133.676 319.043 133.367 313.298 133.666 307.65C134.686 284.808 136.937 262.04 140.409 239.441C142.91 223.872 146.48 208.492 151.093 193.413C154.944 180.585 159.957 168.509 161.155 154.945C162.314 141.823 161.245 128.112 152.431 117.583C146.316 110.277 137.22 104.205 129.421 98.8185C112.978 87.2327 94.6345 78.1258 74.7854 74.2479C69.7275 73.2598 63.166 72.9871 57.8708 72.5398Z" fill="white" fill-opacity="0.3"/>
<path d="M32.0084 0.507227C23.8477 0.406998 20.5439 0.456452 13.6199 5.74712C8.36472 10.0486 4.14798 18.5134 3.87934 25.2893C3.16193 43.3737 2.45691 63.353 25.2753 65.7528C25.6731 65.8102 26.0719 65.8583 26.472 65.8971C32.4475 66.4665 39.2825 64.4279 43.8554 60.5977C59.8622 47.1909 56.3938 2.4661 32.0084 0.507227Z" fill="white" fill-opacity="0.3"/>
<path d="M72.1914 12.0628C60.827 10.5687 56.8331 21.7223 57.2072 31.0501C57.5297 39.0945 56.908 49.9681 62.4944 56.4632C64.6008 58.9122 67.5063 59.4489 70.5129 59.4588C73.0943 59.5119 75.2509 59.6095 77.4136 57.7111C83.3289 51.7406 85.3451 38.3251 86.0753 30.1342C86.991 19.863 82.289 12.8502 72.1914 12.0628Z" fill="white" fill-opacity="0.3"/>
<path d="M100.905 31.4355C97.1499 31.2252 94.9849 31.5627 92.0267 33.9319C88.3904 36.8443 85.8135 43.0389 85.6218 47.5658C85.3633 53.6718 84.8813 61.6697 89.3215 66.4436C91.7335 69.0366 92.6003 69.6718 96.0027 69.9753C99.7762 70.0781 103.331 67.567 105.348 64.4727C112.202 53.9589 117.071 35.9949 100.905 31.4355Z" fill="white" fill-opacity="0.3"/>
<path d="M122.439 51.2744C114.209 50.7618 111.897 57.9555 110.832 64.8936C109.497 73.586 110.516 82.8973 120.995 84.4078C128.597 84.1262 132.97 73.0623 133.493 66.6211C133.823 62.546 132.829 57.9956 129.956 54.9473C127.465 52.3049 126.107 51.4819 122.439 51.2744Z" fill="white" fill-opacity="0.3"/>
<path d="M147.264 66.7342C142.568 66.0515 138.234 69.4096 137.123 73.9423C135.904 78.9183 135.495 88.9164 137.699 93.6892C139.585 97.7745 142.44 99.8055 146.55 101.16C146.853 101.237 147.158 101.302 147.466 101.354C153.128 102.274 155.879 96.6474 156.6 91.9597C157.936 83.2743 158.695 68.5973 147.264 66.7342Z" fill="white" fill-opacity="0.3"/>
</svg>
